<svg xmlns="http://www.w3.org/2000/svg" width="132" height="42" viewBox="0 0 66 21">
  <defs>
    <style>
      .cls-1 {
        fill: #ffb30d;
      }

      .cls-1, .cls-2, .cls-3 {
        fill-rule: evenodd;
      }

      .cls-2 {
        fill: #ffd272;
      }

      .cls-3 {
        fill: #fff;
      }
    </style>
  </defs>
  <path id="_-e-Shape_1" data-name="-e-Shape 1" class="cls-1" d="M20.088,10.362A10.007,10.007,0,1,1,10.081.355,10.007,10.007,0,0,1,20.088,10.362Z"/>
  <path id="_-e-Rounded_Rectangle_1" data-name="-e-Rounded Rectangle 1" class="cls-2" d="M15.191,10.362a5.1,5.1,0,0,1-1.615,3.727L15.391,15.9A7.675,7.675,0,0,0,15.4,4.826L13.583,6.641A5.094,5.094,0,0,1,15.191,10.362Z"/>
  <path id="_-e-Rounded_Rectangle_1_copy" data-name="-e-Rounded Rectangle 1 copy" class="cls-3" d="M13.576,14.089a5.109,5.109,0,1,1,.007-7.447L15.4,4.826A7.676,7.676,0,1,0,15.391,15.9Z"/>
  <path id="_-e-COINS" data-name="-e-COINS" class="cls-3" d="M28.772,11.947a2.573,2.573,0,0,1-.718-1.9,2.437,2.437,0,0,1,.76-1.886,2.609,2.609,0,0,1,1.831-.7,2.766,2.766,0,0,1,2.239,1.119l1.18-1.338a4.493,4.493,0,0,0-3.5-1.594,4.364,4.364,0,0,0-3.169,1.265,4.233,4.233,0,0,0-1.3,3.157A4.193,4.193,0,0,0,27.366,13.2a4.59,4.59,0,0,0,6.649-.389L32.8,11.558a2.8,2.8,0,0,1-2.287,1.107A2.369,2.369,0,0,1,28.772,11.947Zm12.336,0.03a2.419,2.419,0,0,1-3.589,0,2.76,2.76,0,0,1-.73-1.934,2.782,2.782,0,0,1,.73-1.94,2.406,2.406,0,0,1,3.589,0,2.782,2.782,0,0,1,.73,1.94A2.76,2.76,0,0,1,41.108,11.978Zm2.664-1.94A4.2,4.2,0,0,0,42.483,6.9a4.633,4.633,0,0,0-6.351,0,4.2,4.2,0,0,0-1.289,3.133,4.2,4.2,0,0,0,1.289,3.133,4.634,4.634,0,0,0,6.351,0A4.2,4.2,0,0,0,43.772,10.037Zm1.606,4.307h1.9V5.84h-1.9v8.5Zm9.94-3.029L51.144,5.84H49.368v8.5h1.9V9.015l4.051,5.329h1.9V5.84h-1.9v5.475Zm6.727-4a3.746,3.746,0,0,1,2.287.839l0.961-1.387a4.566,4.566,0,0,0-1.484-.827,5.226,5.226,0,0,0-1.7-.292,3.5,3.5,0,0,0-2.172.657,2.2,2.2,0,0,0-.87,1.867,2.168,2.168,0,0,0,.687,1.776,5.449,5.449,0,0,0,2.172.919,4.129,4.129,0,0,1,1.253.456,0.709,0.709,0,0,1,.316.608,0.722,0.722,0,0,1-.3.608,1.335,1.335,0,0,1-.821.225,4.025,4.025,0,0,1-2.543-1.2L58.7,12.945a5.223,5.223,0,0,0,3.638,1.5,3.42,3.42,0,0,0,2.257-.712,2.3,2.3,0,0,0,.858-1.855,2.209,2.209,0,0,0-.669-1.74A4.355,4.355,0,0,0,62.9,9.24a6.112,6.112,0,0,1-1.545-.517,0.673,0.673,0,0,1-.334-0.59,0.733,0.733,0,0,1,.274-0.6,1.144,1.144,0,0,1,.748-0.225h0Z"/>
</svg>
